<svg width="370" height="370" viewBox="0 0 370 370" fill="none" xmlns="http://www.w3.org/2000/svg">
<rect width="370" height="370" fill="#1C1C1C"/>
<g clip-path="url(#clip0_764_910)">
<path fill-rule="evenodd" clip-rule="evenodd" d="M210.103 216.252C205.263 215.849 201.633 211.802 201.633 206.946V205.732C204.86 206.946 208.893 207.755 211.717 205.329C214.943 202.901 214.943 198.449 214.943 194.808V190.763C215.347 190.357 217.363 189.549 218.573 189.144C222.203 187.93 226.237 186.716 227.447 182.671C228.657 178.624 225.833 175.386 223.817 172.555C223.01 171.341 221.397 169.722 221.397 168.913C221.397 168.103 223.01 166.485 223.817 165.272C225.833 162.439 228.657 158.799 227.447 155.155C226.237 151.108 221.8 149.897 218.573 148.683C217.363 148.277 215.347 147.469 214.943 147.469C214.54 146.658 214.54 144.636 214.943 143.422C214.943 139.78 215.347 135.33 211.717 132.902C208.49 130.475 204.053 131.689 200.827 132.902C199.617 133.306 197.6 134.116 196.793 134.116C196.39 133.711 195.18 132.092 194.373 130.878C192.357 128.047 189.533 124 185.5 124C181.467 124 178.643 127.642 176.627 130.878C175.82 132.092 174.61 133.711 174.207 134.116C173.4 134.116 171.383 133.306 170.173 132.902C166.947 131.689 162.51 130.475 159.283 132.902C156.057 135.33 156.057 139.778 156.057 143.422V147.469C155.653 147.872 153.637 148.683 152.427 149.086C148.797 150.3 144.763 151.514 143.553 155.559C142.343 159.605 145.167 162.844 147.183 165.675C147.99 166.889 149.603 168.508 149.603 169.316C149.603 170.127 147.99 171.744 147.183 172.958C145.167 175.791 142.343 179.433 143.553 183.074C144.763 187.121 149.2 188.335 152.427 189.547C153.637 189.952 155.653 190.763 156.057 190.763C156.46 191.569 156.46 193.594 156.057 194.808C156.057 198.449 155.653 202.901 159.283 205.327C162.51 207.755 166.14 206.541 169.367 205.732V206.946C169.367 211.802 165.737 215.443 160.897 216.252C137.1 219.085 125 225.154 125 234.865V242.149C125 244.576 126.613 246.193 129.033 246.193H241.967C244.387 246.193 246 244.574 246 242.147V234.863C246 225.152 233.9 219.083 210.103 216.252ZM237.933 237.698H133.067V234.458C133.067 231.627 140.73 226.366 162.107 223.939C170.98 222.725 177.433 215.441 177.433 206.539V200.066C177.433 198.853 177.03 197.639 176.223 197.233C175.417 196.425 174.207 196.02 172.997 196.02C171.383 196.02 169.367 196.83 167.753 197.233C166.947 197.637 165.333 198.044 164.527 198.044V194.402C164.527 191.164 164.93 187.928 162.913 185.5C161.3 183.072 158.073 181.858 154.847 181.05C153.637 180.645 152.427 180.239 151.62 179.836C152.023 179.025 152.83 177.811 153.637 177.003C155.653 174.575 157.67 171.742 157.67 168.506C157.67 165.27 155.653 162.436 153.637 160.009C153.233 159.2 152.023 157.986 151.62 157.176C152.427 156.772 154.04 156.369 154.847 155.962C157.67 155.155 160.897 153.939 162.913 151.512C164.527 149.084 164.527 145.442 164.527 142.611V138.972C165.333 138.972 166.947 139.778 167.753 139.778C170.577 140.589 173.803 141.803 177.03 140.994C179.853 140.186 181.87 137.353 183.483 134.925C184.29 134.116 185.097 132.497 185.903 132.092C186.71 132.902 187.517 134.116 188.323 134.925C189.937 137.353 191.953 140.186 194.777 140.994C197.6 141.803 200.827 140.994 204.053 139.78C204.86 139.377 206.473 138.972 207.28 138.972V142.611C207.28 145.848 206.877 149.084 208.893 151.512C210.507 153.939 213.733 155.153 216.96 155.962C218.17 156.367 219.38 156.772 220.187 157.176C219.783 157.986 218.977 159.2 218.17 160.009C216.153 162.436 214.137 165.27 214.137 168.506C214.137 171.742 216.153 174.575 218.17 177.003C218.977 177.811 219.783 179.025 220.187 179.836C219.38 180.239 217.767 180.645 216.96 181.05C214.137 181.858 210.91 183.072 208.893 185.5C207.28 187.928 207.28 191.569 207.28 194.402V198.044C206.473 198.044 204.86 197.233 204.053 197.233C202.44 196.83 200.423 196.02 198.81 196.02C197.6 196.02 196.39 196.423 195.583 197.233C194.777 198.044 194.373 199.258 194.373 200.066V206.539C194.373 215.441 200.827 222.725 209.7 223.939C231.077 226.366 238.74 231.627 238.74 234.458V237.696L237.933 237.698Z" fill="#8B8B8B"/>
<path fill-rule="evenodd" clip-rule="evenodd" d="M199.617 177.005C199.617 174.577 198.004 172.958 195.584 172.958C193.164 172.958 191.55 174.577 191.55 177.005C191.55 179.027 188.727 181.052 185.5 181.052C182.274 181.052 179.45 179.027 179.45 177.005C179.45 174.577 177.837 172.958 175.417 172.958C172.997 172.958 171.384 174.577 171.384 177.005C171.384 183.883 177.837 189.144 185.5 189.144C193.164 189.144 199.617 183.478 199.617 177.005Z" fill="#8B8B8B"/>
</g>
<defs>
<clipPath id="clip0_764_910">
<rect width="121" height="123" fill="white" transform="translate(125 124)"/>
</clipPath>
</defs>
</svg>
